<svg id="Bottom_-_nav_option" data-name="Bottom - nav option" xmlns="http://www.w3.org/2000/svg" width="39" height="43" viewBox="0 0 39 43">
  <g id="Group_59" data-name="Group 59" transform="translate(-4794 -516)">
    <rect id="Rectangle_102" data-name="Rectangle 102" width="23" height="24" transform="translate(4802 516)" fill="none"/>
    <g id="settings-cog-line" transform="translate(4803.916 518)">
      <g id="Path_146" data-name="Path 146" transform="translate(-3.206 -3)" fill="none" stroke-linecap="round" stroke-linejoin="round">
        <path d="M14.969,23H10.61l-.6-2.756a7.584,7.584,0,0,1-1.982-1.167l-2.642.848-2.18-3.849,2.04-1.909a7.991,7.991,0,0,1,0-2.333l-2.04-1.91,2.18-3.849,2.642.848A7.585,7.585,0,0,1,10.01,5.756L10.61,3h4.359l.6,2.756a7.585,7.585,0,0,1,1.982,1.167l2.642-.848,2.18,3.849-2.04,1.909a7.985,7.985,0,0,1,0,2.333l2.04,1.909-2.18,3.849-2.642-.848a7.583,7.583,0,0,1-1.982,1.169Z" stroke="none"/>
        <path d="M 14.16329383850098 22 L 14.5922327041626 20.03153991699219 C 14.66291236877441 19.7071590423584 14.88998222351074 19.43899917602539 15.19828224182129 19.31582832336426 C 15.81921195983887 19.06773948669434 16.39819145202637 18.72628974914551 16.91912269592285 18.30095863342285 C 17.18154144287109 18.08670043945312 17.53459358215332 18.01987075805664 17.85716247558594 18.12339973449707 L 19.72393417358398 18.7225170135498 L 21.11457252502441 16.26673889160156 L 19.64939308166504 14.89573860168457 C 19.40978240966797 14.67153930664062 19.2954216003418 14.34404945373535 19.34338188171387 14.01942920684814 C 19.44341278076172 13.34224891662598 19.44341278076172 12.6555290222168 19.34338188171387 11.97834873199463 C 19.2954216003418 11.65372943878174 19.40978240966797 11.32623863220215 19.64939308166504 11.10202884674072 L 21.11456871032715 9.731040000915527 L 19.72393608093262 7.275274276733398 L 17.85715293884277 7.874389171600342 C 17.53489875793457 7.977807998657227 17.18221092224121 7.911218166351318 16.91985321044922 7.697419166564941 C 16.39877319335938 7.272789001464844 15.81977272033691 6.931969165802002 15.19895267486572 6.684449195861816 C 14.89033222198486 6.561398983001709 14.66297245025635 6.293098926544189 14.5922327041626 5.968469142913818 L 14.16329288482666 3.999999046325684 L 11.41568279266357 3.999999046325684 L 10.98760223388672 5.968099117279053 C 10.91696262359619 6.292869091033936 10.68958282470703 6.561308860778809 10.38087272644043 6.684429168701172 C 9.759662628173828 6.932148933410645 9.180352210998535 7.273289203643799 8.659012794494629 7.69835901260376 C 8.396641731262207 7.912288665771484 8.043851852416992 7.97894811630249 7.721512317657471 7.875499248504639 L 5.854728698730469 7.276384353637695 L 4.463979721069336 9.732357025146484 L 5.929492473602295 11.10445880889893 C 6.168932437896729 11.32863903045654 6.283212184906006 11.6559886932373 6.235312461853027 11.98047924041748 C 6.135342597961426 12.65772914886475 6.135342597961426 13.34449863433838 6.235312461853027 14.02174949645996 C 6.283222198486328 14.34633922576904 6.168862342834473 14.67378902435303 5.929282188415527 14.89796924591064 L 4.464096546173096 16.26896858215332 L 5.854730606079102 18.7247371673584 L 7.721502304077148 18.12561988830566 C 8.04376220703125 18.02218818664551 8.396472930908203 18.08878707885742 8.658832550048828 18.30259895324707 C 9.179882049560547 18.72722816467285 9.758872032165527 19.06803894042969 10.37969207763672 19.31554985046387 C 10.68833255767822 19.4385986328125 10.91569232940674 19.70689964294434 10.98643207550049 20.03153991699219 L 11.41537094116211 22 L 14.16329383850098 22 M 14.96885204315186 23 L 10.60981273651123 23 L 10.00936222076416 20.24444961547852 C 9.29475212097168 19.95954895019531 8.626452445983887 19.56622886657715 8.027091979980469 19.07777976989746 L 5.385522365570068 19.92555999755859 L 3.206002473831177 16.07666969299316 L 5.246032238006592 14.16777896881104 C 5.131862163543701 13.39435863494873 5.131862163543701 12.60786914825439 5.246032238006592 11.83444881439209 L 3.206002473831177 9.92444896697998 L 5.385522365570068 6.075559139251709 L 8.027091979980469 6.923328876495361 C 8.62673282623291 6.434409141540527 9.295402526855469 6.040709018707275 10.01045227050781 5.755558967590332 L 10.60981273651123 2.999999046325684 L 14.96885204315186 2.999999046325684 L 15.56930255889893 5.755558967590332 C 16.28390312194824 6.040469169616699 16.95220184326172 6.433789253234863 17.55157279968262 6.922219276428223 L 20.19314193725586 6.074449062347412 L 22.37266159057617 9.923338890075684 L 20.3326416015625 11.83221912384033 C 20.44689178466797 12.60563945770264 20.44689178466797 13.39213943481445 20.3326416015625 14.16555881500244 L 22.37266159057617 16.07444953918457 L 20.19314193725586 19.92333984375 L 17.55157279968262 19.07555961608887 C 16.95236206054688 19.56479835510254 16.2840518951416 19.9588794708252 15.56930255889893 20.24444961547852 L 14.96885204315186 23 Z" stroke="none" fill="#feeded"/>
      </g>
      <g id="Ellipse_98" data-name="Ellipse 98" transform="translate(6.389 6.667)" fill="none" stroke="#feeded" stroke-width="1">
        <ellipse cx="3.194" cy="3.333" rx="3.194" ry="3.333" stroke="none"/>
        <ellipse cx="3.194" cy="3.333" rx="2.694" ry="2.833" fill="none"/>
      </g>
    </g>
  </g>
  <text id="تنظیمات" transform="translate(39 38)" fill="#feeded" font-size="11" font-family="Shabnam-Medium-FD, Shabnam FD"><tspan x="-38.613" y="0">تنظیمات</tspan></text>
</svg>
