<svg data-name="Bottom - nav option" xmlns="http://www.w3.org/2000/svg" width="59" height="43" viewBox="0 0 59 43">
    <g data-name="Group 54">
        <g data-name="Group 60">
            <path data-name="Rectangle 105" transform="translate(17)" style="fill:none" d="M0 0h24v24H0z"/>
            <g style="stroke-linecap:round;stroke-linejoin:round;fill:none">
                <path d="M18.556 12.667V8.222A2.222 2.222 0 0 0 16.333 6H5.222A2.222 2.222 0 0 0 3 8.222v8.889a2.222 2.222 0 0 0 2.222 2.222h11.111a2.222 2.222 0 0 0 2.222-2.222zm0 0L23 8.222v8.889z" style="stroke:none" transform="translate(16 -.667)"/>
                <path d="M16.333 18.333c.674 0 1.223-.548 1.223-1.222V8.222c0-.674-.549-1.222-1.223-1.222H5.223C4.547 7 4 7.548 4 8.222v8.89c0 .673.548 1.221 1.222 1.221h11.111M22 14.697v-4.06l-2.03 2.03 2.03 2.03m-5.667 4.636H5.223A2.222 2.222 0 0 1 3 17.111V8.222C3 6.995 3.995 6 5.222 6h11.111c1.228 0 2.223.995 2.223 2.222v8.89a2.222 2.222 0 0 1-2.223 2.221zM23 17.111l-4.444-4.444L23 8.222v8.89z" style="fill:#feeded;stroke:none" transform="translate(16 -.667)"/>
            </g>
        </g>
        <text data-name="فیلم و سریال" transform="translate(59 38)" style="fill:#feeded;font-size:11px;font-family:Shabnam-Medium-FD,Shabnam FD"><tspan x="-58.926" y="0">فیلم و سریال</tspan></text>
    </g>
</svg>
