<svg data-name="Bottom - nav option" xmlns="http://www.w3.org/2000/svg" width="24" height="43" viewBox="0 0 24 43">
    <g data-name="Group 54">
        <path data-name="Rectangle 103" style="fill:none" d="M0 0h24v24H0z"/>
        <g style="stroke-linecap:round;stroke-linejoin:round;fill:none">
            <path d="M23.17 22.2V11.857a1.224 1.224 0 0 0-.479-.974L14.3 4.493a1.183 1.183 0 0 0-1.438 0l-8.387 6.39a1.224 1.224 0 0 0-.475.974V22.2a1.208 1.208 0 0 0 1.2 1.22h4.791a1.208 1.208 0 0 0 1.2-1.217v-3.652a1.208 1.208 0 0 1 1.2-1.217h2.4a1.208 1.208 0 0 1 1.2 1.217V22.2a1.208 1.208 0 0 0 1.2 1.217h4.793A1.208 1.208 0 0 0 23.17 22.2z" style="stroke:none" transform="translate(-1.585 -1.835)"/>
            <path d="M21.972 22.42c.11 0 .198-.097.198-.217V11.857a.224.224 0 0 0-.085-.178l-8.387-6.39a.185.185 0 0 0-.226 0l-8.387 6.39a.224.224 0 0 0-.085.178v10.346c0 .12.089.217.198.217h4.793c.109 0 .198-.097.198-.217V18.55a2.21 2.21 0 0 1 2.198-2.217h2.396a2.21 2.21 0 0 1 2.198 2.217v3.652c0 .12.09.217.198.217h4.793m0 1h-4.793a1.208 1.208 0 0 1-1.198-1.217V18.55c0-.672-.536-1.217-1.198-1.217h-2.396c-.662 0-1.198.545-1.198 1.217v3.652c0 .672-.537 1.217-1.198 1.217H5.198A1.208 1.208 0 0 1 4 22.203V11.857c0-.383.178-.744.48-.974l8.386-6.39a1.183 1.183 0 0 1 1.438 0l8.387 6.39c.301.23.479.591.479.974v10.346c0 .672-.536 1.217-1.198 1.217z" style="fill:#e50914;stroke:none" transform="translate(-1.585 -1.835)"/>
        </g>
    </g>
    <text transform="translate(22 38)" style="fill:#e50914;font-size:11px;font-family:Shabnam-Medium-FD,Shabnam FD"><tspan x="-19.094" y="0">خانه</tspan></text>
</svg>
