<svg xmlns="http://www.w3.org/2000/svg" width="57" height="84" viewBox="0 0 57 84">
    <defs>
        <linearGradient id="cm9rfidrma" x1=".5" x2=".5" y2="1" gradientUnits="objectBoundingBox">
            <stop offset="0" stop-color="#f88484"/>
            <stop offset="1" stop-color="#f66161"/>
        </linearGradient>
    </defs>
    <g data-name="Group 8">
        <g data-name="Polygon 3" transform="rotate(90 26.5 26.5)" style="fill:url(#cm9rfidrma)">
            <path d="M17.292 52.5c-3.431 0-6.506-1.774-8.224-4.744-1.717-2.97-1.721-6.52-.01-9.494L22.266 15.31c1.716-2.982 4.794-4.762 8.234-4.762 3.44 0 6.518 1.78 8.234 4.762l13.208 22.95c1.711 2.975 1.707 6.524-.01 9.495-1.719 2.97-4.793 4.744-8.224 4.744H17.292z" style="stroke:none"/>
            <path d="M30.5 11.049c-3.259 0-6.175 1.686-7.8 4.511L9.491 38.511c-1.622 2.818-1.618 6.18.01 8.994C11.128 50.32 14.041 52 17.291 52h26.416v.143V52c3.25 0 6.163-1.68 7.79-4.495 1.628-2.814 1.632-6.177.01-8.994L38.301 15.56c-1.626-2.825-4.542-4.511-7.801-4.511m0-1c3.372 0 6.744 1.67 8.667 5.012l13.208 22.951C56.211 44.678 51.399 53 43.708 53H17.292C9.601 53 4.79 44.679 8.625 38.012l13.208-22.95c1.923-3.342 5.295-5.013 8.667-5.013z" style="fill:#141414;stroke:none"/>
        </g>
        <g data-name="Polygon 1" transform="rotate(-90 32.5 28.5)" style="fill:url(#cm9rfidrma)">
            <path d="M17.292 52.5c-3.431 0-6.506-1.774-8.224-4.744-1.717-2.97-1.721-6.52-.01-9.494L22.266 15.31c1.716-2.982 4.794-4.762 8.234-4.762 3.44 0 6.518 1.78 8.234 4.762l13.208 22.95c1.711 2.975 1.707 6.524-.01 9.495-1.719 2.97-4.793 4.744-8.224 4.744H17.292z" style="stroke:none"/>
            <path d="M30.5 11.049c-3.259 0-6.175 1.686-7.8 4.511L9.491 38.511c-1.622 2.818-1.618 6.18.01 8.994C11.128 50.32 14.041 52 17.291 52h26.416v.143V52c3.25 0 6.163-1.68 7.79-4.495 1.628-2.814 1.632-6.177.01-8.994L38.301 15.56c-1.626-2.825-4.542-4.511-7.801-4.511m0-1c3.372 0 6.744 1.67 8.667 5.012l13.208 22.951C56.211 44.678 51.399 53 43.708 53H17.292C9.601 53 4.79 44.679 8.625 38.012l13.208-22.95c1.923-3.342 5.295-5.013 8.667-5.013z" style="fill:#141414;stroke:none"/>
        </g>
    </g>
    <text transform="translate(29 78)" style="fill:#feeded;font-size:14px;font-family:Shabnam-Medium-FD,Shabnam FD"><tspan x="-26.855" y="0">نتفلیکس</tspan></text>
</svg>
